<svg xmlns="http://www.w3.org/2000/svg" viewBox="0 0 512 512" role="img" aria-label="Apollo Hospitals favicon">
  <defs>
    <linearGradient id="bg" x1="0%" y1="0%" x2="100%" y2="100%">
      <stop offset="0%" stop-color="#ffffff"/>
      <stop offset="100%" stop-color="#f4f6f8"/>
    </linearGradient>
    <linearGradient id="blue" x1="0%" y1="0%" x2="100%" y2="100%">
      <stop offset="0%" stop-color="#1693b7"/>
      <stop offset="100%" stop-color="#0b6f99"/>
    </linearGradient>
    <linearGradient id="gold" x1="0%" y1="0%" x2="100%" y2="100%">
      <stop offset="0%" stop-color="#ffc42d"/>
      <stop offset="100%" stop-color="#f39a00"/>
    </linearGradient>
    <filter id="shadow" x="-20%" y="-20%" width="140%" height="140%">
      <feDropShadow dx="0" dy="10" stdDeviation="12" flood-color="#7a8da0" flood-opacity="0.25"/>
    </filter>
  </defs>

  <rect x="48" y="48" width="416" height="416" rx="72" fill="url(#bg)" filter="url(#shadow)"/>

  <g transform="translate(98 68)">
    <path d="M123 32c18 21 40 18 55 28 14 9 22 28 17 49-4-17-15-28-31-34-18-7-39-7-51-22-7-8-9-19-7-31 4 5 10 8 17 10z" fill="url(#gold)"/>
    <path d="M118 0c17 26 45 18 63 32 16 12 22 32 14 54-2-16-12-29-29-37-19-10-45-11-58-28-6-7-9-13-9-21 6 4 12 8 19 10z" fill="#ffb112"/>

    <path d="M78 82h73l32 34v128l-45 44H78z" fill="url(#blue)"/>
    <path d="M151 82v34h32z" fill="#d5edf4"/>

    <path d="M102 98h18v18h16v18h-16v18h-18v-18H86v-18h16z" fill="#ffffff"/>

    <path d="M115 245l111-127h39L154 245z" fill="url(#blue)"/>
    <path d="M105 146h88l-88 99z" fill="#dfe6eb"/>

    <path d="M171 192h20v53h-20z" fill="url(#blue)"/>
    <path d="M191 162h20v83h-20z" fill="url(#blue)"/>
    <path d="M171 162h40v20h-40z" fill="url(#blue)"/>

    <path d="M131 169h12a10 10 0 0 1 10 10v7h-32v-7a10 10 0 0 1 10-10z" fill="#0b6f99"/>
    <path d="M146 151c0 8-5 14-12 14s-12-6-12-14c0-7 5-13 12-13s12 6 12 13z" fill="#0b6f99"/>
  </g>
</svg>
