<svg xmlns="http://www.w3.org/2000/svg" viewBox="0 0 512 512" role="img" aria-label="Waste Analysis favicon">
  <defs>
    <linearGradient id="bg" x1="0%" y1="0%" x2="100%" y2="100%">
      <stop offset="0%" stop-color="#ffffff"/>
      <stop offset="100%" stop-color="#eef4ff"/>
    </linearGradient>
    <linearGradient id="circle" x1="0%" y1="0%" x2="100%" y2="100%">
      <stop offset="0%" stop-color="#3aa6a8"/>
      <stop offset="100%" stop-color="#0f4f64"/>
    </linearGradient>
    <linearGradient id="bin" x1="0%" y1="0%" x2="100%" y2="100%">
      <stop offset="0%" stop-color="#2f8a7b"/>
      <stop offset="100%" stop-color="#174f57"/>
    </linearGradient>
    <linearGradient id="leaf" x1="0%" y1="0%" x2="100%" y2="100%">
      <stop offset="0%" stop-color="#b5e64b"/>
      <stop offset="100%" stop-color="#5aaa2d"/>
    </linearGradient>
    <filter id="shadow" x="-20%" y="-20%" width="140%" height="140%">
      <feDropShadow dx="0" dy="12" stdDeviation="18" flood-color="#9bb0d4" flood-opacity="0.35"/>
    </filter>
  </defs>

  <rect x="64" y="64" width="384" height="384" rx="56" fill="url(#bg)" filter="url(#shadow)"/>
  <circle cx="256" cy="256" r="170" fill="url(#circle)"/>

  <g stroke="#12392f" stroke-linecap="round" stroke-linejoin="round">
    <path d="M182 166l68-38c10-6 23-2 29 8l0 0c6 10 3 22-7 28l-71 39z" fill="#9cda47" stroke-width="10"/>
    <path d="M221 134l24-14c7-4 16-2 20 5l2 3c4 7 2 16-5 20l-24 14z" fill="#9cda47" stroke-width="8"/>

    <path d="M192 176h142c13 0 24 11 23 24l-11 134c-2 25-22 44-47 44h-77c-25 0-45-19-47-44l-11-134c-1-13 10-24 28-24z" fill="url(#bin)" stroke-width="10"/>

    <path d="M201 238c19-27 54-24 75-6" fill="none" stroke="#12392f" stroke-width="8"/>
    <path d="M236 211c-11-4-26 2-32 16 12 4 25-2 32-16z" fill="#ff8d3b" stroke-width="6"/>
    <path d="M255 255c11-24 35-40 62-40-2 27-22 51-49 59-8 2-15 2-22 0 1-7 4-13 9-19z" fill="#ffd63d" stroke-width="6"/>
    <path d="M276 212c5 15 16 27 31 32 2-15-7-31-22-38z" fill="#9cda47" stroke-width="6"/>

    <path d="M201 295c24 5 50 5 75 0 24-5 48-5 71 0v51c0 13-10 23-23 23h-98c-13 0-23-10-23-23z" fill="#6b4122" stroke-width="8"/>
    <circle cx="219" cy="322" r="4" fill="#a96b3d" stroke="none"/>
    <circle cx="246" cy="343" r="4" fill="#a96b3d" stroke="none"/>
    <circle cx="275" cy="319" r="4" fill="#a96b3d" stroke="none"/>
    <circle cx="300" cy="340" r="4" fill="#a96b3d" stroke="none"/>

    <path d="M236 276c11-20 37-29 58-20-5 24-29 39-53 33-3-1-5-2-8-4 0-3 1-6 3-9z" fill="url(#leaf)" stroke-width="6"/>
    <path d="M263 248c-4 13-12 24-23 31" fill="none" stroke="#2d6f24" stroke-width="5"/>

    <path d="M345 219c0 56-17 101-52 134-31 29-74 41-117 33l12-28c50 9 91-6 121-43 24-30 36-68 36-115z" fill="#8bd23d" stroke-width="10"/>
    <path d="M327 183l53 37-65 16z" fill="#8bd23d" stroke-width="10"/>

    <path d="M305 156c26-13 57-5 74 19-27 15-61 8-79-17 2 0 3-1 5-2z" fill="url(#leaf)" stroke-width="8"/>
    <path d="M347 154c-11 13-19 28-23 45" fill="none" stroke="#2d6f24" stroke-width="5"/>

    <path d="M270 131c24-12 52-4 68 18-25 14-56 7-73-16 2 0 3-1 5-2z" fill="url(#leaf)" stroke-width="8"/>
    <path d="M308 130c-10 12-16 26-20 40" fill="none" stroke="#2d6f24" stroke-width="5"/>
  </g>
</svg>
