<svg xmlns="http://www.w3.org/2000/svg" viewBox="0 0 512 512" role="img" aria-label="BNY favicon">
  <rect width="512" height="512" fill="white"/>
  <g transform="translate(60, 160)">
    <!-- Teal Arrow -->
    <path d="M 0,96 L 65,30 L 65,70 L 110,70 L 110,122 L 65,122 L 65,162 Z" fill="#00A4BD"/>
    <!-- BNY Text in Navy -->
    <g fill="#003865" transform="translate(135, 25)">
      <!-- B -->
      <path d="M 0,0 L 0,132 L 55,132 Q 74,132 84,122 Q 94,112 94,94 Q 94,82 86,73 Q 78,64 66,60 Q 76,56 82,47 Q 88,38 88,26 Q 88,9 78,2 Q 68,-5 52,-5 Z M 26,18 L 46,18 Q 57,18 62,23 Q 67,28 67,38 Q 67,48 62,53 Q 57,58 46,58 L 26,58 Z M 26,76 L 51,76 Q 62,76 67,81 Q 72,86 72,96 Q 72,106 67,111 Q 62,116 51,116 L 26,116 Z"/>
      <!-- N -->
      <path d="M 110,0 L 110,132 L 132,132 L 196,37 L 196,132 L 218,132 L 218,0 L 196,0 L 132,95 L 132,0 Z"/>
      <!-- Y -->
      <path d="M 240,0 L 270,74 L 300,0 L 326,0 L 282,98 L 282,132 L 258,132 L 258,98 L 214,0 Z"/>
    </g>
  </g>
</svg>